<svg width="273" height="28" viewBox="0 0 273 28" fill="none" xmlns="http://www.w3.org/2000/svg">
<path d="M36.072 1.872L29.052 27H23.112L18.396 9.108L13.464 27L7.56 27.036L0.792 1.872H6.192L10.62 21.384L15.732 1.872H21.348L26.172 21.276L30.636 1.872H36.072ZM57.9029 16.596C57.9029 17.316 57.8549 17.964 57.7589 18.54H43.1789C43.2989 19.98 43.8029 21.108 44.6909 21.924C45.5789 22.74 46.6709 23.148 47.9669 23.148C49.8389 23.148 51.1709 22.344 51.9629 20.736H57.3989C56.8229 22.656 55.7189 24.24 54.0869 25.488C52.4549 26.712 50.4509 27.324 48.0749 27.324C46.1549 27.324 44.4269 26.904 42.8909 26.064C41.3789 25.2 40.1909 23.988 39.3269 22.428C38.4869 20.868 38.0669 19.068 38.0669 17.028C38.0669 14.964 38.4869 13.152 39.3269 11.592C40.1669 10.032 41.3429 8.832 42.8549 7.992C44.3669 7.152 46.1069 6.732 48.0749 6.732C49.9709 6.732 51.6629 7.14 53.1509 7.956C54.6629 8.772 55.8269 9.936 56.6429 11.448C57.4829 12.936 57.9029 14.652 57.9029 16.596ZM52.6829 15.156C52.6589 13.86 52.1909 12.828 51.2789 12.06C50.3669 11.268 49.2509 10.872 47.9309 10.872C46.6829 10.872 45.6269 11.256 44.7629 12.024C43.9229 12.768 43.4069 13.812 43.2149 15.156H52.6829ZM66.6217 0.36V27H61.5817V0.36H66.6217ZM70.3052 17.028C70.3052 14.964 70.7252 13.164 71.5652 11.628C72.4052 10.068 73.5692 8.868 75.0572 8.028C76.5452 7.164 78.2492 6.732 80.1692 6.732C82.6412 6.732 84.6812 7.356 86.2892 8.604C87.9212 9.828 89.0132 11.556 89.5652 13.788H84.1292C83.8412 12.924 83.3492 12.252 82.6532 11.772C81.9812 11.268 81.1412 11.016 80.1332 11.016C78.6932 11.016 77.5532 11.544 76.7132 12.6C75.8732 13.632 75.4532 15.108 75.4532 17.028C75.4532 18.924 75.8732 20.4 76.7132 21.456C77.5532 22.488 78.6932 23.004 80.1332 23.004C82.1732 23.004 83.5052 22.092 84.1292 20.268H89.5652C89.0132 22.428 87.9212 24.144 86.2892 25.416C84.6572 26.688 82.6172 27.324 80.1692 27.324C78.2492 27.324 76.5452 26.904 75.0572 26.064C73.5692 25.2 72.4052 24 71.5652 22.464C70.7252 20.904 70.3052 19.092 70.3052 17.028ZM102.113 27.324C100.193 27.324 98.4654 26.904 96.9294 26.064C95.3934 25.2 94.1814 23.988 93.2934 22.428C92.4294 20.868 91.9974 19.068 91.9974 17.028C91.9974 14.988 92.4414 13.188 93.3294 11.628C94.2414 10.068 95.4774 8.868 97.0374 8.028C98.5974 7.164 100.337 6.732 102.257 6.732C104.177 6.732 105.917 7.164 107.477 8.028C109.037 8.868 110.261 10.068 111.149 11.628C112.061 13.188 112.517 14.988 112.517 17.028C112.517 19.068 112.049 20.868 111.113 22.428C110.201 23.988 108.953 25.2 107.369 26.064C105.809 26.904 104.057 27.324 102.113 27.324ZM102.113 22.932C103.025 22.932 103.877 22.716 104.669 22.284C105.485 21.828 106.133 21.156 106.613 20.268C107.093 19.38 107.333 18.3 107.333 17.028C107.333 15.132 106.829 13.68 105.821 12.672C104.837 11.64 103.625 11.124 102.185 11.124C100.745 11.124 99.5334 11.64 98.5494 12.672C97.5894 13.68 97.1094 15.132 97.1094 17.028C97.1094 18.924 97.5774 20.388 98.5134 21.42C99.4734 22.428 100.673 22.932 102.113 22.932ZM140.982 6.768C143.43 6.768 145.398 7.524 146.886 9.036C148.398 10.524 149.154 12.612 149.154 15.3V27H144.114V15.984C144.114 14.424 143.718 13.236 142.926 12.42C142.134 11.58 141.054 11.16 139.686 11.16C138.318 11.16 137.226 11.58 136.41 12.42C135.618 13.236 135.222 14.424 135.222 15.984V27H130.182V15.984C130.182 14.424 129.786 13.236 128.994 12.42C128.202 11.58 127.122 11.16 125.754 11.16C124.362 11.16 123.258 11.58 122.442 12.42C121.65 13.236 121.254 14.424 121.254 15.984V27H116.214V7.056H121.254V9.468C121.902 8.628 122.73 7.968 123.738 7.488C124.77 7.008 125.898 6.768 127.122 6.768C128.682 6.768 130.074 7.104 131.298 7.776C132.522 8.424 133.47 9.36 134.142 10.584C134.79 9.432 135.726 8.508 136.95 7.812C138.198 7.116 139.542 6.768 140.982 6.768ZM172.477 16.596C172.477 17.316 172.429 17.964 172.333 18.54H157.753C157.873 19.98 158.377 21.108 159.265 21.924C160.153 22.74 161.245 23.148 162.541 23.148C164.413 23.148 165.745 22.344 166.537 20.736H171.973C171.397 22.656 170.293 24.24 168.661 25.488C167.029 26.712 165.025 27.324 162.649 27.324C160.729 27.324 159.001 26.904 157.465 26.064C155.953 25.2 154.765 23.988 153.901 22.428C153.061 20.868 152.641 19.068 152.641 17.028C152.641 14.964 153.061 13.152 153.901 11.592C154.741 10.032 155.917 8.832 157.429 7.992C158.941 7.152 160.681 6.732 162.649 6.732C164.545 6.732 166.237 7.14 167.725 7.956C169.237 8.772 170.401 9.936 171.217 11.448C172.057 12.936 172.477 14.652 172.477 16.596ZM167.257 15.156C167.233 13.86 166.765 12.828 165.853 12.06C164.941 11.268 163.825 10.872 162.505 10.872C161.257 10.872 160.201 11.256 159.337 12.024C158.497 12.768 157.981 13.812 157.789 15.156H167.257ZM198.99 14.112C200.406 14.376 201.57 15.084 202.482 16.236C203.394 17.388 203.85 18.708 203.85 20.196C203.85 21.54 203.514 22.728 202.842 23.76C202.194 24.768 201.246 25.56 199.998 26.136C198.75 26.712 197.274 27 195.57 27H184.734V1.872H195.102C196.806 1.872 198.27 2.148 199.494 2.7C200.742 3.252 201.678 4.02 202.302 5.004C202.95 5.988 203.274 7.104 203.274 8.352C203.274 9.816 202.878 11.04 202.086 12.024C201.318 13.008 200.286 13.704 198.99 14.112ZM189.774 12.24H194.382C195.582 12.24 196.506 11.976 197.154 11.448C197.802 10.896 198.126 10.116 198.126 9.108C198.126 8.1 197.802 7.32 197.154 6.768C196.506 6.216 195.582 5.94 194.382 5.94H189.774V12.24ZM194.85 22.896C196.074 22.896 197.022 22.608 197.694 22.032C198.39 21.456 198.738 20.64 198.738 19.584C198.738 18.504 198.378 17.664 197.658 17.064C196.938 16.44 195.966 16.128 194.742 16.128H189.774V22.896H194.85ZM206.571 16.956C206.571 14.94 206.967 13.152 207.759 11.592C208.575 10.032 209.667 8.832 211.035 7.992C212.427 7.152 213.975 6.732 215.679 6.732C217.167 6.732 218.463 7.032 219.567 7.632C220.695 8.232 221.595 8.988 222.267 9.9V7.056H227.343V27H222.267V24.084C221.619 25.02 220.719 25.8 219.567 26.424C218.439 27.024 217.131 27.324 215.643 27.324C213.963 27.324 212.427 26.892 211.035 26.028C209.667 25.164 208.575 23.952 207.759 22.392C206.967 20.808 206.571 18.996 206.571 16.956ZM222.267 17.028C222.267 15.804 222.027 14.76 221.547 13.896C221.067 13.008 220.419 12.336 219.603 11.88C218.787 11.4 217.911 11.16 216.975 11.16C216.039 11.16 215.175 11.388 214.383 11.844C213.591 12.3 212.943 12.972 212.439 13.86C211.959 14.724 211.719 15.756 211.719 16.956C211.719 18.156 211.959 19.212 212.439 20.124C212.943 21.012 213.591 21.696 214.383 22.176C215.199 22.656 216.063 22.896 216.975 22.896C217.911 22.896 218.787 22.668 219.603 22.212C220.419 21.732 221.067 21.06 221.547 20.196C222.027 19.308 222.267 18.252 222.267 17.028ZM230.969 17.028C230.969 14.964 231.389 13.164 232.229 11.628C233.069 10.068 234.233 8.868 235.721 8.028C237.209 7.164 238.913 6.732 240.833 6.732C243.305 6.732 245.345 7.356 246.953 8.604C248.585 9.828 249.677 11.556 250.229 13.788H244.793C244.505 12.924 244.013 12.252 243.317 11.772C242.645 11.268 241.805 11.016 240.797 11.016C239.357 11.016 238.217 11.544 237.377 12.6C236.537 13.632 236.117 15.108 236.117 17.028C236.117 18.924 236.537 20.4 237.377 21.456C238.217 22.488 239.357 23.004 240.797 23.004C242.837 23.004 244.169 22.092 244.793 20.268H250.229C249.677 22.428 248.585 24.144 246.953 25.416C245.321 26.688 243.281 27.324 240.833 27.324C238.913 27.324 237.209 26.904 235.721 26.064C234.233 25.2 233.069 24 232.229 22.464C231.389 20.904 230.969 19.092 230.969 17.028ZM265.73 27L258.962 18.504V27H253.922V0.36H258.962V15.516L265.658 7.056H272.21L263.426 17.064L272.282 27H265.73Z" fill="black"/>
</svg>
